<svg id="visual" viewBox="0 0 360 700" width="360" height="700" xmlns="http://www.w3.org/2000/svg" xmlns:xlink="http://www.w3.org/1999/xlink" version="1.1"><rect x="0" y="0" width="360" height="700" fill="#001122"></rect><path d="M0 422L90 479L180 470L270 429L360 398L360 701L270 701L180 701L90 701L0 701Z" fill="#0066ff"></path><path d="M0 411L90 466L180 392L270 424L360 513L360 701L270 701L180 701L90 701L0 701Z" fill="#0066eb"></path><path d="M0 425L90 471L180 384L270 374L360 378L360 701L270 701L180 701L90 701L0 701Z" fill="#0063d5"></path><path d="M0 543L90 432L180 445L270 423L360 395L360 701L270 701L180 701L90 701L0 701Z" fill="#0060be"></path><path d="M0 554L90 457L180 530L270 486L360 537L360 701L270 701L180 701L90 701L0 701Z" fill="#005ba6"></path><path d="M0 560L90 533L180 503L270 577L360 545L360 701L270 701L180 701L90 701L0 701Z" fill="#00558f"></path><path d="M0 598L90 526L180 601L270 494L360 509L360 701L270 701L180 701L90 701L0 701Z" fill="#004f7a"></path><path d="M0 548L90 603L180 578L270 520L360 533L360 701L270 701L180 701L90 701L0 701Z" fill="#004765"></path><path d="M0 601L90 621L180 591L270 605L360 614L360 701L270 701L180 701L90 701L0 701Z" fill="#003e4f"></path><path d="M0 624L90 626L180 634L270 583L360 609L360 701L270 701L180 701L90 701L0 701Z" fill="#00343a"></path><path d="M0 613L90 621L180 623L270 619L360 646L360 701L270 701L180 701L90 701L0 701Z" fill="#002927"></path><path d="M0 670L90 659L180 688L270 681L360 686L360 701L270 701L180 701L90 701L0 701Z" fill="#001f18"></path></svg>